<svg xmlns="http://www.w3.org/2000/svg" xmlns:xlink="http://www.w3.org/1999/xlink" width="1024" height="1024" version="1.1" viewBox="0 0 1024 1024"><title>Artboard</title><desc>Created with Sketch.</desc><defs><linearGradient id="linearGradient-1" x1="100%" x2="0%" y1="0%" y2="100%"><stop offset="0%" stop-color="#00B4A6"/><stop offset="45.006%" stop-color="#12DFCF"/><stop offset="100%" stop-color="#01665E"/></linearGradient><polygon id="path-2" points=".5 .5 74.5 .5 74.5 60.5 .5 60.5"/></defs><g id="Artboard" fill="none" fill-rule="evenodd" stroke="none" stroke-width="1"><rect id="Rectangle" width="1024" height="1024" x="0" y="0" fill="url(#linearGradient-1)"/><g id="Group-3" transform="translate(475.000000, 482.000000)"><mask id="mask-3" fill="#fff"><use xlink:href="#path-2"/></mask><path id="Fill-1" fill="#FFF" d="M65.6565539,3.13012478 C57.0397026,-2.07212558 45.8716563,0.691569926 40.5941268,9.22651192 C38.0370937,13.360443 27.1200803,42.1353903 24.4229358,46.1764241 C22.3446167,49.2826785 18.3047379,50.3800282 15.0996896,48.4466025 C11.8888033,46.5131769 10.8262918,42.4198884 12.8112033,39.174288 C15.9111681,34.1055775 20.8267431,33.0140339 26.5304448,33.4611023 L28.7780652,28.9497758 C21.3404849,24.8622934 8.45607392,24.6706927 3.21357229,32.950167 C-2.15736479,41.4270482 0.732432876,52.6734309 9.34344614,57.8698752 C17.9544594,63.0721256 29.1225057,60.3084301 34.4000352,51.7734881 C36.9629063,47.6453631 47.8740817,18.8646097 50.5770642,14.8235759 C52.6495454,11.7173215 56.6952621,10.6199718 59.9061484,12.5592036 C63.1053587,14.4926292 64.1678702,18.5859177 62.1829587,21.8315181 C59.0829939,26.9002285 54.1732569,27.9859661 48.4695552,27.5388977 L46.2219348,32.0502242 C53.6536771,36.1435127 66.5380881,36.3351134 71.7864277,28.0556391 C77.1573648,19.5787579 74.2675671,8.33237514 65.6565539,3.13012478" mask="url(#mask-3)"/></g></g></svg>